<?xml version="1.0" encoding="iso-8859-1"?>
<!-- Generator: Adobe Illustrator 19.0.0, SVG Export Plug-In . SVG Version: 6.00 Build 0)  -->
<svg xmlns="http://www.w3.org/2000/svg" xmlns:xlink="http://www.w3.org/1999/xlink" version="1.1" id="Capa_1" x="0px" y="0px" viewBox="0 0 512 512" style="enable-background:new 0 0 512 512;" xml:space="preserve" width="512px" height="512px">
<g>
	<g>
		<path d="M87.62,64.401L25.622,4.403c-5.859-5.859-15.352-5.859-21.21,0c-5.859,5.859-5.859,15.352,0,21.21L66.41,85.611    c5.859,5.859,15.352,5.859,21.21,0C93.479,79.752,93.479,70.259,87.62,64.401z" fill="#696e7a"/>
	</g>
</g>
<g>
	<g>
		<path d="M137.013,0.009c-8.291,0-15,6.709-15,15v59.998c0,8.291,6.709,14.999,15,14.999s15-6.709,15-14.999V15.008    C152.012,6.717,145.303,0.009,137.013,0.009z" fill="#696e7a"/>
	</g>
</g>
<g>
	<g>
		<path d="M77.015,120.005H15.017c-8.291,0-15,6.709-15,15s6.709,15,15,15h61.998c8.291,0,14.999-6.709,14.999-15    S85.305,120.005,77.015,120.005z" fill="#696e7a"/>
	</g>
</g>
<g>
	<g>
		<path d="M339.506,240.001c-12.426,0-22.499,10.073-22.499,22.499c0,47.314,0,22.589,0,52.498c0,8.284-6.716,15-15,15    c-8.284,0-15-6.716-15-15c0-53.058,0-89.889,0-142.495c0-12.427-10.074-22.499-22.499-22.499    c-12.426,0-22.499,10.073-22.499,22.499c0,52.549,0,89.402,0,142.495c0,8.284-6.716,15-15,15c-8.284,0-15-6.716-15-15    c0-77.174,0-94.853,0-172.494c0-12.427-10.074-22.499-22.499-22.499s-22.499,10.073-22.499,22.499c0,77.621,0,95.272,0,172.494    c0,8.284-6.716,15-14.999,15c-8.284,0-15-6.716-15-15c0-53.058,0-89.889,0-142.495c0-12.427-10.074-22.499-22.499-22.499    s-22.499,10.073-22.499,22.499c0,86.21,0,153.472,0,235.191l-38.698-38.999c-10.373-10.373-29.503-12.235-43.099-1.5    c-11.446,10.014-13.885,28.567-4.2,40.799l52.998,79.998c11.4,14.999,29.098,23.999,47.997,23.999c60.177,0,120.227,0,179.994,0    c41.399,0,74.997-34.599,74.997-75.997c0-74.414,0-98.272,0-173.494C362.005,250.072,351.931,240.001,339.506,240.001z" fill="#696e7a"/>
	</g>
</g>
<g>
	<g>
		<path d="M264.508,30.008c-12.426,0-22.499,10.073-22.499,22.499v72.857c6.854-3.278,14.409-5.359,22.499-5.359    c8.083,0,15.654,1.988,22.499,5.266V52.507C287.008,40.08,276.934,30.008,264.508,30.008z" fill="#696e7a"/>
	</g>
</g>
<g>
	<g>
		<path d="M489.501,120.005c-12.426,0-22.499,10.073-22.499,22.499c0,47.316,0,22.59,0,52.498c0,8.284-6.716,15-15,15    c-8.284,0-15-6.716-15-15c0-53.058,0-89.889,0-142.495c0-12.427-10.074-22.499-22.499-22.499    c-12.426,0-22.499,10.073-22.499,22.499c0,52.55,0,89.402,0,142.495c0,8.284-6.716,15-15,15c-8.284,0-15-6.716-15-15    c0-77.173,0-94.853,0-172.494c0-12.427-10.074-22.499-22.499-22.499c-12.426,0-22.499,10.073-22.499,22.499    c0,99.671,0,93.693,0,192.562c6.826-3.252,14.458-5.068,22.499-5.068c28.944,0,52.498,23.554,52.498,52.498v127.496h44.998    c41.352,0,74.997-33.646,74.997-74.997c0-132.7,0-114.42,0-172.494C512,130.076,501.926,120.005,489.501,120.005z" fill="#696e7a"/>
	</g>
</g>
<g>
</g>
<g>
</g>
<g>
</g>
<g>
</g>
<g>
</g>
<g>
</g>
<g>
</g>
<g>
</g>
<g>
</g>
<g>
</g>
<g>
</g>
<g>
</g>
<g>
</g>
<g>
</g>
<g>
</g>
</svg>
